<svg width="65" height="64" viewBox="0 0 65 64" fill="none" xmlns="http://www.w3.org/2000/svg">
<g clip-path="url(#clip0_2165_238769)">
<path d="M32.502 3.88867C48.0272 3.88879 60.6133 16.4747 60.6133 32C60.6132 47.5252 48.0271 60.1112 32.502 60.1113C16.9767 60.1113 4.39074 47.5252 4.39062 32C4.39062 16.4747 16.9766 3.88867 32.502 3.88867Z" stroke="#FD4242" stroke-width="6"/>
<mask id="path-2-inside-1_2165_238769" fill="white">
<path d="M32.5017 0.889113C49.6839 0.889112 63.6128 14.818 63.6128 32.0002C63.6128 49.1824 49.6839 63.1113 32.5017 63.1113C15.3195 63.1113 1.39062 49.1824 1.39062 32.0002C1.39062 14.818 15.3195 0.889114 32.5017 0.889113ZM32.5017 59.3824C47.6245 59.3824 59.8839 47.123 59.8839 32.0002C59.8839 16.8775 47.6245 4.61808 32.5017 4.61808C17.379 4.61808 5.11959 16.8775 5.11959 32.0002C5.11959 47.123 17.379 59.3824 32.5017 59.3824Z"/>
</mask>
<path d="M32.5017 0.889113C49.6839 0.889112 63.6128 14.818 63.6128 32.0002C63.6128 49.1824 49.6839 63.1113 32.5017 63.1113C15.3195 63.1113 1.39062 49.1824 1.39062 32.0002C1.39062 14.818 15.3195 0.889114 32.5017 0.889113ZM32.5017 59.3824C47.6245 59.3824 59.8839 47.123 59.8839 32.0002C59.8839 16.8775 47.6245 4.61808 32.5017 4.61808C17.379 4.61808 5.11959 16.8775 5.11959 32.0002C5.11959 47.123 17.379 59.3824 32.5017 59.3824Z" stroke="#FD4242" stroke-width="8" mask="url(#path-2-inside-1_2165_238769)"/>
<g clip-path="url(#clip1_2165_238769)">
<path d="M39.4328 23.6795H46.3661V26.4528H43.5928V44.4795C43.5928 44.8472 43.4467 45.1999 43.1867 45.46C42.9266 45.72 42.5739 45.8661 42.2061 45.8661H22.7928C22.425 45.8661 22.0723 45.72 21.8123 45.46C21.5522 45.1999 21.4061 44.8472 21.4061 44.4795V26.4528H18.6328V23.6795H25.5661V19.5195C25.5661 19.1517 25.7122 18.799 25.9723 18.539C26.2323 18.2789 26.585 18.1328 26.9528 18.1328H38.0461C38.4139 18.1328 38.7666 18.2789 39.0267 18.539C39.2867 18.799 39.4328 19.1517 39.4328 19.5195V23.6795ZM40.8195 26.4528H24.1795V43.0928H40.8195V26.4528ZM34.4602 34.7728L36.9119 37.2244L34.9511 39.1852L32.4995 36.7336L30.0479 39.1852L28.0871 37.2244L30.5387 34.7728L28.0871 32.3212L30.0479 30.3604L32.4995 32.8121L34.9511 30.3604L36.9119 32.3212L34.4602 34.7728ZM28.3395 20.9061V23.6795H36.6595V20.9061H28.3395Z" fill="#FD4242"/>
</g>
</g>
<defs>
<clipPath id="clip0_2165_238769">
<rect width="64" height="64" fill="white" transform="translate(0.5)"/>
</clipPath>
<clipPath id="clip1_2165_238769">
<rect width="33.28" height="33.28" fill="white" transform="translate(15.8594 15.3594)"/>
</clipPath>
</defs>
</svg>
