<svg width="65" height="64" viewBox="0 0 65 64" fill="none" xmlns="http://www.w3.org/2000/svg">
<g clip-path="url(#clip0_2165_245325)">
<path d="M32.502 3.88867C48.0272 3.88879 60.6133 16.4747 60.6133 32C60.6132 47.5252 48.0271 60.1112 32.502 60.1113C16.9767 60.1113 4.39074 47.5252 4.39062 32C4.39062 16.4747 16.9766 3.88867 32.502 3.88867Z" stroke="#F60E0E" stroke-width="6"/>
<mask id="path-2-inside-1_2165_245325" fill="white">
<path d="M32.5017 0.889113C49.6839 0.889112 63.6128 14.818 63.6128 32.0002C63.6128 49.1824 49.6839 63.1113 32.5017 63.1113C15.3195 63.1113 1.39062 49.1824 1.39062 32.0002C1.39062 14.818 15.3195 0.889114 32.5017 0.889113ZM32.5017 59.3824C47.6245 59.3824 59.8839 47.123 59.8839 32.0002C59.8839 16.8775 47.6245 4.61808 32.5017 4.61808C17.379 4.61808 5.11959 16.8775 5.11959 32.0002C5.11959 47.123 17.379 59.3824 32.5017 59.3824Z"/>
</mask>
<path d="M32.5017 0.889113C49.6839 0.889112 63.6128 14.818 63.6128 32.0002C63.6128 49.1824 49.6839 63.1113 32.5017 63.1113C15.3195 63.1113 1.39062 49.1824 1.39062 32.0002C1.39062 14.818 15.3195 0.889114 32.5017 0.889113ZM32.5017 59.3824C47.6245 59.3824 59.8839 47.123 59.8839 32.0002C59.8839 16.8775 47.6245 4.61808 32.5017 4.61808C17.379 4.61808 5.11959 16.8775 5.11959 32.0002C5.11959 47.123 17.379 59.3824 32.5017 59.3824Z" stroke="#F60E0E" stroke-width="8" mask="url(#path-2-inside-1_2165_245325)"/>
<g clip-path="url(#clip1_2165_245325)">
<path d="M21.4062 19.52H43.5929C43.9606 19.52 44.3133 19.6661 44.5734 19.9262C44.8334 20.1862 44.9795 20.5389 44.9795 20.9067V43.0933C44.9795 43.4611 44.8334 43.8138 44.5734 44.0739C44.3133 44.3339 43.9606 44.48 43.5929 44.48H21.4062C21.0384 44.48 20.6857 44.3339 20.4257 44.0739C20.1656 43.8138 20.0195 43.4611 20.0195 43.0933V20.9067C20.0195 20.5389 20.1656 20.1862 20.4257 19.9262C20.6857 19.6661 21.0384 19.52 21.4062 19.52ZM22.7929 22.2934V41.7067H42.2062V22.2934H22.7929ZM25.5662 30.6134H39.4329V33.3867H25.5662V30.6134Z" fill="#F60E0E"/>
</g>
</g>
<defs>
<clipPath id="clip0_2165_245325">
<rect width="64" height="64" fill="white" transform="translate(0.5)"/>
</clipPath>
<clipPath id="clip1_2165_245325">
<rect width="33.28" height="33.28" fill="white" transform="translate(15.8594 15.3599)"/>
</clipPath>
</defs>
</svg>
