<?xml version="1.0" standalone="no"?>
<!DOCTYPE svg PUBLIC "-//W3C//DTD SVG 20010904//EN"
 "http://www.w3.org/TR/2001/REC-SVG-20010904/DTD/svg10.dtd">
<svg version="1.0" xmlns="http://www.w3.org/2000/svg"
 width="303.000000pt" height="360.000000pt" viewBox="0 0 303.000000 360.000000"
 preserveAspectRatio="xMidYMid meet">

<g transform="translate(0.000000,360.000000) scale(0.100000,-0.100000)"
fill="#000000" stroke="none">
<path d="M2778 3511 l-228 -76 -82 -105 c-157 -200 -531 -675 -583 -740 -49
-61 -776 -984 -1040 -1320 -67 -85 -191 -261 -275 -390 -85 -129 -190 -292
-235 -361 -46 -69 -94 -145 -109 -170 -17 -28 100 84 324 311 342 346 410 423
800 901 135 165 458 559 501 609 52 62 479 582 887 1078 150 184 272 335 270
337 -2 1 -105 -32 -230 -74z"/>
<path d="M2005 3249 c-93 -33 -189 -66 -212 -75 -37 -13 -70 -52 -310 -356
-147 -188 -302 -384 -344 -437 -41 -53 -192 -244 -334 -426 -142 -181 -301
-383 -353 -448 -57 -71 -148 -208 -231 -345 -186 -308 -209 -351 -185 -332 79
61 497 469 560 547 44 53 93 113 110 132 17 20 179 216 360 436 181 220 413
501 514 624 102 123 210 254 240 291 30 37 105 127 165 200 195 237 206 250
198 249 -4 0 -84 -27 -178 -60z"/>
<path d="M2860 3084 c-85 -108 -274 -348 -420 -533 -146 -185 -438 -556 -650
-825 -212 -268 -396 -502 -410 -521 -14 -18 -81 -104 -150 -191 -101 -128
-535 -772 -630 -934 -23 -40 642 626 721 722 28 35 68 83 89 108 61 73 448
543 696 844 126 154 341 415 477 580 136 166 290 353 343 417 l94 117 -2 206
-3 206 -155 -196z"/>
<path d="M1153 2956 c-101 -34 -187 -66 -192 -71 -4 -6 -141 -179 -304 -386
-307 -390 -329 -423 -577 -864 l-34 -60 45 39 c24 21 78 71 119 110 41 39 124
116 184 171 66 61 172 177 270 295 217 263 449 543 554 669 113 135 125 151
121 155 -2 2 -86 -24 -186 -58z"/>
<path d="M2664 2088 c-191 -244 -471 -600 -623 -793 -398 -507 -399 -509 -477
-609 -38 -50 -91 -125 -115 -166 -25 -41 -103 -169 -174 -285 -70 -116 -130
-214 -133 -220 -6 -12 35 26 303 280 115 110 218 210 228 223 10 12 24 28 30
35 7 6 84 100 172 207 151 185 411 501 555 675 36 44 113 136 169 205 57 69
119 144 138 167 19 23 90 110 159 194 l124 152 0 188 c0 104 -2 189 -4 189 -3
0 -161 -199 -352 -442z"/>
<path d="M2804 1513 c-176 -226 -381 -486 -427 -543 -119 -147 -203 -280 -445
-704 -13 -23 38 22 240 212 224 209 213 198 696 780 l152 184 0 169 c0 93 -2
169 -3 169 -2 0 -98 -120 -213 -267z"/>
</g>
</svg>
