<svg width="22" height="22" viewBox="0 0 22 22" fill="none" xmlns="http://www.w3.org/2000/svg">
<path fill-rule="evenodd" clip-rule="evenodd" d="M5 8.3335C5 6.7422 5.63214 5.21607 6.75736 4.09086C7.88258 2.96564 9.40871 2.3335 11 2.3335C12.5913 2.3335 14.1174 2.96564 15.2426 4.09086C16.3679 5.21607 17 6.7422 17 8.3335V9.00016C17 10.8873 17.7111 12.6064 18.8827 13.9068C18.9557 13.9877 19.0077 14.0852 19.0343 14.1909C19.0608 14.2965 19.0611 14.4071 19.035 14.5129C19.009 14.6186 18.9574 14.7164 18.8848 14.7977C18.8123 14.8789 18.7209 14.9411 18.6187 14.9788C17.2462 15.4855 15.8098 15.8588 14.3244 16.0837C14.3579 16.5407 14.2967 16.9997 14.1448 17.4321C13.9929 17.8644 13.7535 18.2607 13.4415 18.5964C13.1295 18.932 12.7517 19.1997 12.3316 19.3828C11.9116 19.5658 11.4582 19.6603 11 19.6603C10.5418 19.6603 10.0885 19.5658 9.66837 19.3828C9.24829 19.1997 8.87046 18.932 8.55849 18.5964C8.24651 18.2607 8.00709 17.8644 7.85518 17.4321C7.70326 16.9997 7.64212 16.5407 7.67556 16.0837C6.21036 15.8617 4.77155 15.4912 3.38134 14.9779C3.27923 14.9402 3.18791 14.8781 3.11535 14.797C3.04278 14.7159 2.99118 14.6182 2.96505 14.5126C2.93892 14.4069 2.93906 14.2965 2.96545 14.1909C2.99184 14.0853 3.04368 13.9878 3.11645 13.9068C4.33139 12.5617 5.00274 10.8128 5 9.00016V8.3335ZM9.00178 16.2446C8.99041 16.5141 9.03367 16.7831 9.12897 17.0355C9.22426 17.2878 9.36962 17.5183 9.55629 17.713C9.74296 17.9077 9.96709 18.0627 10.2152 18.1685C10.4633 18.2744 10.7303 18.3289 11 18.3289C11.2697 18.3289 11.5367 18.2744 11.7848 18.1685C12.0329 18.0627 12.257 17.9077 12.4437 17.713C12.6304 17.5183 12.7757 17.2878 12.871 17.0355C12.9663 16.7831 13.0096 16.5141 12.9982 16.2446C11.6688 16.3644 10.3312 16.3644 9.00178 16.2446Z" fill="#121212"/>
<circle cx="14.5556" cy="3.88905" r="3.55556" fill="#777B7E"/>
</svg>
