<svg width="20" height="20" viewBox="0 0 20 20" fill="none" xmlns="http://www.w3.org/2000/svg">
<path fill-rule="evenodd" clip-rule="evenodd" d="M7.28007 0.46934C7.42052 0.609965 7.49941 0.800589 7.49941 0.99934C7.49941 1.19809 7.42052 1.38871 7.28007 1.52934L2.56007 6.24934H12.7501C14.5403 6.24934 16.2572 6.9605 17.523 8.22637C18.7889 9.49224 19.5001 11.2091 19.5001 12.9993C19.5001 14.7896 18.7889 16.5064 17.523 17.7723C16.2572 19.0382 14.5403 19.7493 12.7501 19.7493H9.75007C9.55116 19.7493 9.3604 19.6703 9.21974 19.5297C9.07909 19.389 9.00007 19.1983 9.00007 18.9993C9.00007 18.8004 9.07909 18.6097 9.21974 18.469C9.3604 18.3284 9.55116 18.2493 9.75007 18.2493H12.7501C13.4395 18.2493 14.1222 18.1135 14.7592 17.8497C15.3961 17.5859 15.9749 17.1992 16.4624 16.7117C16.9499 16.2241 17.3366 15.6454 17.6004 15.0084C17.8643 14.3715 18.0001 13.6888 18.0001 12.9993C18.0001 12.3099 17.8643 11.6272 17.6004 10.9903C17.3366 10.3533 16.9499 9.77454 16.4624 9.28703C15.9749 8.79952 15.3961 8.41281 14.7592 8.14897C14.1222 7.88514 13.4395 7.74934 12.7501 7.74934H2.56007L7.28007 12.4693C7.35376 12.538 7.41286 12.6208 7.45385 12.7128C7.49485 12.8048 7.51689 12.9041 7.51866 13.0048C7.52044 13.1055 7.50192 13.2055 7.4642 13.2989C7.42647 13.3923 7.37033 13.4772 7.29911 13.5484C7.22789 13.6196 7.14306 13.6757 7.04967 13.7135C6.95628 13.7512 6.85625 13.7697 6.75555 13.7679C6.65485 13.7662 6.55553 13.7441 6.46353 13.7031C6.37153 13.6621 6.28873 13.603 6.22007 13.5293L0.220073 7.52934C0.079622 7.38871 0.000732422 7.19809 0.000732422 6.99934C0.000732422 6.80059 0.079622 6.60997 0.220073 6.46934L6.22007 0.46934C6.3607 0.32889 6.55132 0.25 6.75007 0.25C6.94882 0.25 7.13945 0.32889 7.28007 0.46934Z" fill="#121212"/>
</svg>
