<svg width="80" height="80" viewBox="0 0 80 80" fill="none" xmlns="http://www.w3.org/2000/svg">
<rect width="80" height="80" rx="40" fill="#FFF7F7"/>
<path d="M40 32V42M64 40C64 43.1517 63.3792 46.2726 62.1731 49.1844C60.967 52.0962 59.1992 54.742 56.9706 56.9706C54.742 59.1992 52.0962 60.967 49.1844 62.1731C46.2726 63.3792 43.1517 64 40 64C36.8483 64 33.7274 63.3792 30.8156 62.1731C27.9038 60.967 25.258 59.1992 23.0294 56.9706C20.8008 54.742 19.033 52.0962 17.8269 49.1844C16.6208 46.2726 16 43.1517 16 40C16 33.6348 18.5286 27.5303 23.0294 23.0294C27.5303 18.5286 33.6348 16 40 16C46.3652 16 52.4697 18.5286 56.9706 23.0294C61.4714 27.5303 64 33.6348 64 40ZM40 50H40.0213V50.0213H40V50Z" stroke="#CA0814" stroke-width="5" stroke-linecap="round" stroke-linejoin="round"/>
</svg>
